<svg version="1.1" id="Layer_1" xmlns="http://www.w3.org/2000/svg" xmlns:xlink="http://www.w3.org/1999/xlink" x="0px" y="0px"
	 viewBox="0 0 20 20" width="20" height="20" xml:space="preserve">
<path fill="#1E1E1E" d="M17.4,13.2h-1.1c-0.5,0.6-1,1.1-1.6,1.5H17v1.7H3v-1.7h2.3c-0.6-0.4-1.1-0.9-1.6-1.5H2.6
	c-0.6,0-1.1,0.5-1.1,1.1v2.5c0,0.6,0.5,1.1,1.1,1.1h14.8c0.6,0,1.1-0.5,1.1-1.1v-2.5C18.5,13.7,18,13.2,17.4,13.2z"/>
<path fill="#1E1E1E" d="M10,1.9c-3.7,0-6.7,3-6.7,6.7s3,6.7,6.7,6.7s6.7-3,6.7-6.7S13.7,1.9,10,1.9z"/>
</svg>
